<svg xmlns="http://www.w3.org/2000/svg" viewBox="0 0 216 216"><defs><style>.cls-1{fill:none;}.cls-2{fill:#ea4133;}.cls-3{fill:#4385f3;}.cls-4{fill:#fab914;}</style></defs><g id="Capa_2" data-name="Capa 2"><g id="Capa_1-2" data-name="Capa 1"><rect class="cls-1" width="216" height="216"/><path class="cls-2" d="M141.28,109.38l-20.21,4.38L109.16,67.19q-9,26.53-17.9,53-8.54-3.16-17.07-6.33,14.72-36.76,29.45-73.51h10.5Q127.7,74.88,141.28,109.38Z"/><path class="cls-3" d="M82.37,175.62H40.67q7.09-8.13,14.2-16.26,4.25-9.56,8.47-19.1,8.52,6.12,17,12.21c-.78,2.3-1.55,4.61-2.33,6.92-1.13,3.34-2.27,6.69-3.39,10Z"/><path class="cls-3" d="M123.31,175.57c4.09-2,8.19-4,12.3-6l-5.09-19.45q-2.78-10.65-5.55-21.31h0l19.79-10.5c.66,1.65,9.43,24,10.07,25.58.23.61,6,15.19,6.21,15.8l14.29,16Z"/><path class="cls-4" d="M175.33,102q-15.29,8.1-30.57,16.23v0L125,128.76h0l-44.6,23.7q-8.5-6.12-17-12.21-6.17-4.41-12.3-8.83c3.57-2.61,7.17-5.32,10.79-8.07,4.19-3.18,8.25-6.32,12.26-9.47l0,0s0,0,.08,0q8.53,3.18,17.07,6.33l29.81-6.46,20.21-4.38Z"/></g></g></svg>