<svg xmlns="http://www.w3.org/2000/svg" viewBox="0 0 216 216"><defs><style>.cls-1{fill:none;}.cls-2{fill:#fab80a;}.cls-3{fill:#4385f3;}.cls-4{fill:#ea4133;}.cls-5{fill:#f8bb01;}</style></defs><g id="Capa_2" data-name="Capa 2"><g id="Capa_7" data-name="Capa 7"><rect class="cls-1" width="216" height="216"/><path class="cls-2" d="M82.26,114.52c-1.87,4.85-3.53,9.19-5,13.1-.74,1.95-1.47,3.8-2.13,5.51-2.12,5.6-3.84,10.08-5.2,13.61-3.09-2.33-6.06-4.54-8.86-6.65l-8.67-6.49a3.88,3.88,0,0,1,0-6.22c2.42-1.8,4.85-3.64,7.28-5.49,4.46-3.38,8.78-6.71,13-10.07l0,0c.81.26,1.65.52,2.5.76s1.58.46,2.35.68C77.56,113.24,80.09,114,82.26,114.52Z"/><path class="cls-3" d="M81.57,174.46h-43a53.72,53.72,0,0,0,12.82-13.7s.94-1.46,1.83-3.07c1.28-2.32,4.12-8.75,7.83-17.59l8.88,6.63c-3,7.71-4.15,10.9-4.25,11.2l-.06.19a8.64,8.64,0,0,0-.33,3.11C66,168.36,76.56,172.71,81.57,174.46Z"/><path class="cls-4" d="M146.9,117.81c-5.75,0-11.1,0-16-.09Q120,81.08,109.17,44.45C97.52,74.79,88.76,97.62,82.26,114.52c-2.17-.57-4.7-1.28-4.7-1.28-.77-.22-1.56-.43-2.35-.68s-1.69-.5-2.5-.76C84.3,83.39,97.6,49.81,103.51,35a6,6,0,0,1,5.18-3.42A6,6,0,0,1,114.33,35Q130.62,76.38,146.9,117.81Z"/><path class="cls-3" d="M177.45,174.46H126.68c9.4-2,16.12-7,16.67-12.67a8.61,8.61,0,0,0-.54-3.85q-4.14-14-8.27-27.9l15.56-4.11,12.6,32c.56,1,1.19,2.07,1.86,3.11A50.3,50.3,0,0,0,177.45,174.46Z"/><path class="cls-5" d="M175.75,117.66a.54.54,0,0,1,.17,1q-6.09,2-25.82,7.22L134.54,130c-.78-2.61-1.55-5.22-2.33-7.84l-1.32-4.48q8,.07,16,.09Q161.47,117.82,175.75,117.66Z"/></g></g></svg>